HIERARCHY
ROOT Hips
{
	OFFSET 0.00000 0.00000 0.00000
	CHANNELS 6 Xposition Yposition Zposition Zrotation Yrotation Xrotation 
	JOINT LHipJoint
	{
		OFFSET 0 0 0
		CHANNELS 3 Zrotation Yrotation Xrotation
		JOINT LeftHip
		{
			OFFSET 1.84395 -1.68683 0.74144
			CHANNELS 3 Zrotation Yrotation Xrotation
			JOINT LeftKnee
			{
				OFFSET 2.27037 -6.23779 0.00000
				CHANNELS 3 Zrotation Yrotation Xrotation
				JOINT LeftAnkle
				{
					OFFSET 2.56918 -7.05877 0.00000
					CHANNELS 3 Zrotation Yrotation Xrotation
					JOINT LeftToe
					{
						OFFSET 0.22276 -0.61202 1.71784
						CHANNELS 3 Zrotation Yrotation Xrotation
						End Site
						{
							OFFSET 0.00000 -0.00000 0.91613
						}
					}
				}
			}
		}
	}
	JOINT RHipJoint
	{
		OFFSET 0 0 0
		CHANNELS 3 Zrotation Yrotation Xrotation
		JOINT RightHip
		{
			OFFSET -1.76833 -1.68684 0.74144
			CHANNELS 3 Zrotation Yrotation Xrotation
			JOINT RightKnee
			{
				OFFSET -2.49360 -6.85110 0.00000
				CHANNELS 3 Zrotation Yrotation Xrotation
				JOINT RightAnkle
				{
					OFFSET -2.55538 -7.02085 0.00000
					CHANNELS 3 Zrotation Yrotation Xrotation
					JOINT RightToe
					{
						OFFSET -0.21516 -0.59115 1.68050
						CHANNELS 3 Zrotation Yrotation Xrotation
						End Site
						{
							OFFSET -0.00000 -0.00000 0.89604
						}
					}
				}
			}
		}
	}
	JOINT lowerback
	{
		OFFSET 0 0 0
		CHANNELS 3 Zrotation Yrotation Xrotation
		JOINT Chest
		{
			OFFSET 0.06382 1.72312 -0.19613
			CHANNELS 3 Zrotation Yrotation Xrotation
			JOINT Chest2
			{
				OFFSET -0.00055 1.73507 0.23859
				CHANNELS 3 Zrotation Yrotation Xrotation
				JOINT lowerneck
				{
					OFFSET 0 0 0
					CHANNELS 3 Zrotation Yrotation Xrotation
					JOINT Neck
					{
						OFFSET 0.03638 1.65562 0.09633
						CHANNELS 3 Zrotation Yrotation Xrotation
						JOINT Head
						{
							OFFSET 0.06388 1.62807 -0.32386
							CHANNELS 3 Zrotation Yrotation Xrotation
							End Site
							{
								OFFSET 0.00995 1.67644 -0.12021
							}
						}
					}
				}
				JOINT LeftCollar
				{
					OFFSET 0 0 0
					CHANNELS 3 Zrotation Yrotation Xrotation
					JOINT LeftShoulder
					{
						OFFSET 3.09648 1.42991 0.28122
CHANNELS 3 Zrotation Xrotation Yrotation
						JOINT LeftElbow
						{
OFFSET 0 -5.118780 -0.000000
CHANNELS 3 Zrotation Xrotation Yrotation
							JOINT LeftWrist
							{
OFFSET 0 -3.599710 0.000000
CHANNELS 3 Zrotation Xrotation Yrotation
								JOINT lhand
								{
									OFFSET 0 0 0
CHANNELS 3 Zrotation Xrotation Yrotation
									JOINT LFingers
									{
OFFSET 0 -0.628770 0.000000
CHANNELS 3 Zrotation Xrotation Yrotation
										End Site
										{
OFFSET 0 -0.506930 0.000000
										}
									}
								}
								JOINT LThumb
								{
OFFSET 0 0.000000 0.000000
CHANNELS 3 Zrotation Xrotation Yrotation
									End Site
									{
OFFSET 0 -0.514670 0.514670
									}
								}
							}
						}
					}
				}
				JOINT RightCollar
				{
					OFFSET 0 0 0
					CHANNELS 3 Zrotation Yrotation Xrotation
					JOINT RightShoulder
					{
						OFFSET -3.33565 1.14597 0.05047
CHANNELS 3 Zrotation Xrotation Yrotation
						JOINT RightElbow
						{
OFFSET 0 -5.490200 0.000000
CHANNELS 3 Zrotation Xrotation Yrotation
							JOINT RightWrist
							{
OFFSET 0 -3.206590 -0.000000
CHANNELS 3 Zrotation Xrotation Yrotation
								JOINT rhand
								{
									OFFSET 0 0 0
CHANNELS 3 Zrotation Xrotation Yrotation
									JOINT RFingers
									{
OFFSET 0 -0.691880 0.000000
CHANNELS 3 Zrotation Xrotation Yrotation
										End Site
										{
OFFSET 0 -0.557810 0.000000
										}
									}
								}
								JOINT RThumb
								{
OFFSET 0 0.000000 0.000000
CHANNELS 3 Zrotation Xrotation Yrotation
									End Site
									{
OFFSET 0 -0.566330 0.566330
									}
								}
							}
						}
					}
				}
			}
		}
	}
}
MOTION
Frames: 6
Frame Time: 0.008333333333333333
-0.247671 17.690085 7.665104 -7.410388 -6.441102 11.400180 0.000000 0.000000 0.000000 -17.041113 -37.679208 16.340651 0.031104 -1.137296 -3.126635 -5.997301 42.741012 -39.195158 0.636917 5.097947 14.189916 0.000000 0.000000 0.000000 22.274109 27.928361 1.611416 -0.020845 -0.930806 2.558429 0.893438 -19.153702 -17.701957 -0.011662 0.697502 -1.916840 6.115370 -0.815253 7.214758 1.710346 0.013806 -10.923303 -1.477638 -0.600820 -16.369177 -9.367519 -13.712537 -9.577344 8.552928 -18.522855 11.615439 2.332811 -8.828457 6.767882 0.000000 0.000000 0.000000 27.337713 -16.673608 -70.139990 99.031427 -59.689502 67.813262 14.016553 -37.073210 -7.189587 0.000000 0.000000 0.000000 -7.125000 0.000000 0.000000 -10.831017 37.189804 -2.110146 0.000000 0.000000 0.000000 -82.003398 -50.144534 -38.693540 -125.675036 -54.594445 -90.334255 -38.779454 44.132884 38.805407 0.000000 0.000000 0.000000 7.125000 0.000000 0.000000 -7.417909 75.757997 5.383053
-0.244060 17.689027 7.675091 -7.510552 -6.754228 11.639365 0.000000 0.000000 0.000000 -17.810747 -39.101457 17.766374 0.038970 -1.274009 -3.503052 -5.858776 43.534240 -42.151792 0.856167 5.900655 16.496362 0.000000 0.000000 0.000000 22.360734 28.542927 1.895415 -0.014527 -0.777313 2.136431 0.957161 -19.543820 -17.681402 -0.009856 0.642265 -1.764980 6.076428 -0.266484 6.332790 1.584789 0.648908 -10.430470 -1.745172 -0.271373 -15.120797 -10.058394 -14.676938 -8.716067 9.236696 -19.790196 10.176963 2.558805 -9.472173 6.417119 0.000000 0.000000 0.000000 26.590026 -19.893390 -71.024010 97.773306 -59.770249 66.726712 15.496264 -38.039724 -6.906087 0.000000 0.000000 0.000000 -7.125000 0.000000 0.000000 -9.546574 36.993390 -1.901773 0.000000 0.000000 0.000000 -83.912286 -51.821901 -46.233816 -122.150611 -55.703797 -87.440940 -43.199032 51.124681 35.856072 0.000000 0.000000 0.000000 7.125000 0.000000 0.000000 -18.014219 74.084670 12.484213
-0.237052 17.682951 7.684103 -7.697690 -7.171699 11.586853 0.000000 0.000000 0.000000 -18.393395 -39.704042 18.904785 0.042620 -1.331997 -3.662876 -5.642636 43.968573 -44.195363 0.973632 6.280460 17.600858 0.000000 0.000000 0.000000 22.570771 28.662002 2.155900 -0.011872 -0.702927 1.931785 0.936923 -19.299917 -17.383087 -0.009282 0.623036 -1.712094 5.938916 0.135152 5.975655 1.513628 1.140185 -10.391694 -1.839708 -0.020732 -14.799422 -11.187565 -15.266213 -7.262467 9.655609 -20.642224 9.903632 2.821940 -9.954105 6.334884 0.000000 0.000000 0.000000 25.221465 -21.513417 -71.964167 95.425322 -59.886669 64.696613 16.051798 -39.414602 -7.592173 0.000000 0.000000 0.000000 -7.125000 0.000000 0.000000 -9.189691 37.730321 -1.661323 0.000000 0.000000 0.000000 -79.636755 -51.871435 -44.209725 -110.580473 -58.255008 -77.709468 -41.846435 54.293517 32.874025 0.000000 0.000000 0.000000 7.125000 0.000000 0.000000 -15.463018 70.373606 9.472810
-0.230762 17.667826 7.700180 -7.979888 -7.839446 11.320436 0.000000 0.000000 0.000000 -19.183990 -40.005181 20.496020 0.047983 -1.413658 -3.887705 -5.051638 44.118763 -46.767788 1.161585 6.840931 19.245417 0.000000 0.000000 0.000000 22.943405 28.384497 2.430113 -0.011210 -0.684560 1.881271 0.844221 -18.489250 -16.842719 -0.013015 0.735622 -2.021749 5.604513 0.490076 5.520450 1.473525 1.537814 -10.344367 -1.765185 0.212173 -14.415918 -12.102688 -15.537036 -6.606805 9.616580 -21.132702 11.354005 2.853756 -10.227984 6.832759 0.000000 0.000000 0.000000 23.900137 -22.459915 -72.739826 92.740410 -59.968453 62.372932 15.941491 -41.058068 -8.423951 0.000000 0.000000 0.000000 -7.125000 0.000000 0.000000 -9.421383 38.574236 -1.506689 0.000000 0.000000 0.000000 -73.783090 -50.687744 -37.101789 -83.703078 -59.403319 -54.578348 -40.720673 53.710318 31.112274 0.000000 0.000000 0.000000 7.125000 0.000000 0.000000 -13.639247 68.055835 7.635685
-0.233504 17.652429 7.724040 -8.072412 -8.568613 10.821197 0.000000 0.000000 0.000000 -20.338063 -40.001674 22.297784 0.053697 -1.495232 -4.112582 -4.784064 44.547890 -48.620612 1.203975 6.961361 19.601006 0.000000 0.000000 0.000000 23.312409 28.169312 2.966179 -0.013043 -0.737143 2.025793 0.754881 -17.751752 -16.506590 -0.015643 0.807469 -2.219204 4.971582 0.817408 5.233812 1.282705 1.862883 -10.425097 -1.676119 0.423970 -14.302246 -11.403427 -15.365441 -6.256051 8.040858 -20.936163 13.176251 2.301429 -10.202519 7.087395 0.000000 0.000000 0.000000 23.059504 -22.968236 -74.136929 89.838810 -59.999152 59.860444 16.207266 -41.677016 -9.065314 0.000000 0.000000 0.000000 -7.125000 0.000000 0.000000 -9.306208 39.250576 -1.332099 0.000000 0.000000 0.000000 -71.442567 -48.491158 -28.767367 -47.438614 -51.645859 -24.221475 -31.997214 43.590125 31.600368 0.000000 0.000000 0.000000 7.125000 0.000000 0.000000 -0.511483 65.930453 0.283750
-0.246250 17.642754 7.752202 -7.964873 -9.156399 10.120514 0.000000 0.000000 0.000000 -21.360421 -39.323744 23.597222 0.056581 -1.534530 -4.220927 -4.424854 44.424095 -49.505488 1.271831 7.147247 20.152513 0.000000 0.000000 0.000000 23.571039 27.662521 3.624935 -0.015242 -0.797685 2.192404 0.663184 -16.982030 -16.214707 -0.020486 0.923324 -2.537835 3.977962 0.853085 4.888895 1.180204 1.754047 -10.426388 -1.211234 0.477246 -14.098899 -11.679702 -14.968456 -5.617742 7.620309 -20.531268 14.940321 2.257932 -10.058766 7.498925 0.000000 0.000000 0.000000 23.013240 -22.806697 -75.039225 87.954292 -59.983806 58.228490 16.516397 -41.939470 -9.613730 0.000000 0.000000 0.000000 -7.125000 0.000000 0.000000 -9.139234 39.836952 -1.174133 0.000000 0.000000 0.000000 -74.108885 -47.625466 -18.805854 -24.962525 -35.903035 -8.371325 -33.794592 31.890696 37.695136 0.000000 0.000000 0.000000 7.125000 0.000000 0.000000 -0.201202 73.015587 0.842860
